<svg xmlns="http://www.w3.org/2000/svg" xmlns:xlink="http://www.w3.org/1999/xlink" width="500" zoomAndPan="magnify" viewBox="0 0 375 374.999991" height="500" preserveAspectRatio="xMidYMid meet" version="1.0"><defs><g/><clipPath id="ada41fa6f5"><path d="M 76.425781 199.734375 L 162.675781 199.734375 L 162.675781 250.734375 L 76.425781 250.734375 Z M 76.425781 199.734375 " clip-rule="nonzero"/></clipPath><clipPath id="74a3aa3b50"><path d="M 55.1875 212.652344 L 119.6875 212.652344 L 119.6875 250.902344 L 55.1875 250.902344 Z M 55.1875 212.652344 " clip-rule="nonzero"/></clipPath></defs><g clip-path="url(#ada41fa6f5)"><path fill="#94a187" d="M 162.464844 242.535156 L 162.464844 249.25 C 162.464844 249.445312 162.425781 249.632812 162.351562 249.816406 C 162.277344 249.996094 162.171875 250.15625 162.035156 250.292969 C 161.894531 250.433594 161.734375 250.539062 161.554688 250.613281 C 161.375 250.6875 161.183594 250.726562 160.988281 250.722656 L 77.933594 250.722656 C 77.738281 250.726562 77.550781 250.6875 77.367188 250.613281 C 77.1875 250.539062 77.027344 250.433594 76.890625 250.292969 C 76.75 250.15625 76.644531 249.996094 76.570312 249.816406 C 76.496094 249.632812 76.457031 249.445312 76.460938 249.25 L 76.460938 242.535156 C 76.460938 241.125 76.527344 239.71875 76.667969 238.320312 C 76.804688 236.917969 77.011719 235.527344 77.285156 234.144531 C 77.558594 232.761719 77.902344 231.398438 78.3125 230.050781 C 78.71875 228.703125 79.195312 227.378906 79.734375 226.078125 C 80.273438 224.777344 80.875 223.503906 81.535156 222.261719 C 82.199219 221.019531 82.925781 219.8125 83.707031 218.644531 C 84.488281 217.472656 85.328125 216.34375 86.21875 215.253906 C 87.113281 214.164062 88.058594 213.121094 89.054688 212.125 C 90.050781 211.128906 91.09375 210.1875 92.179688 209.292969 C 93.269531 208.398438 94.398438 207.5625 95.570312 206.777344 C 96.742188 205.996094 97.949219 205.273438 99.191406 204.609375 C 100.433594 203.945312 101.703125 203.34375 103.003906 202.804688 C 104.304688 202.265625 105.632812 201.792969 106.980469 201.382812 C 108.328125 200.972656 109.691406 200.632812 111.074219 200.359375 C 112.453125 200.082031 113.84375 199.875 115.246094 199.738281 C 116.648438 199.601562 118.054688 199.53125 119.460938 199.53125 C 120.871094 199.53125 122.273438 199.601562 123.675781 199.738281 C 125.078125 199.875 126.46875 200.082031 127.851562 200.359375 C 129.230469 200.632812 130.597656 200.972656 131.945312 201.382812 C 133.292969 201.792969 134.617188 202.265625 135.917969 202.804688 C 137.21875 203.34375 138.492188 203.945312 139.734375 204.609375 C 140.976562 205.273438 142.179688 205.996094 143.351562 206.777344 C 144.523438 207.5625 145.652344 208.398438 146.742188 209.292969 C 147.832031 210.1875 148.871094 211.128906 149.867188 212.125 C 150.863281 213.121094 151.808594 214.164062 152.703125 215.253906 C 153.597656 216.34375 154.433594 217.472656 155.214844 218.644531 C 156 219.8125 156.722656 221.019531 157.386719 222.261719 C 158.050781 223.503906 158.652344 224.777344 159.191406 226.078125 C 159.730469 227.378906 160.203125 228.703125 160.613281 230.050781 C 161.019531 231.398438 161.363281 232.761719 161.636719 234.144531 C 161.914062 235.527344 162.117188 236.917969 162.257812 238.320312 C 162.394531 239.71875 162.464844 241.125 162.464844 242.535156 Z M 162.464844 242.535156 " fill-opacity="1" fill-rule="nonzero"/></g><g fill="#000000" fill-opacity="1"><g transform="translate(37.500002, 193.819439)"><g><path d="M 2.90625 -43.984375 L 23.765625 1.171875 L 42.171875 -39 L 60.3125 1.171875 L 81.53125 -43.984375 L 78.53125 -43.984375 L 60.578125 -4.71875 L 42.34375 -44.890625 L 23.9375 -4.71875 L 5.984375 -43.984375 Z M 2.90625 -43.984375 "/></g></g></g><g fill="#000000" fill-opacity="1"><g transform="translate(116.844265, 193.819439)"><g><path d="M 46.609375 -43.984375 L 46.609375 -32.375 C 43.4375 -39.90625 35.28125 -44.796875 26.578125 -44.796875 C 13.875 -44.796875 3.53125 -34.828125 3.53125 -21.953125 C 3.53125 -8.703125 13.875 1 26.65625 1 C 35.28125 1 42.34375 -3.171875 46.609375 -11.25 L 46.609375 0 L 49.25 0 L 49.25 -43.984375 Z M 26.390625 -42.34375 C 37.71875 -42.34375 46.96875 -33.46875 46.96875 -21.765625 C 46.96875 -10.25 37.90625 -1.359375 26.75 -1.359375 C 15.234375 -1.359375 6.25 -10.25 6.25 -21.953125 C 6.25 -33.375 15.328125 -42.34375 26.390625 -42.34375 Z M 26.390625 -42.34375 "/></g></g></g><g fill="#000000" fill-opacity="1"><g transform="translate(168.984608, 193.819439)"><g><path d="M 7.171875 -66.65625 L 7.171875 -23.125 C 7.171875 -19.3125 7.625 -16.59375 8.609375 -13.875 C 12.0625 -4.71875 20.3125 1 30.015625 1 C 42.984375 1 53.234375 -8.984375 53.234375 -21.671875 C 53.328125 -34.46875 42.984375 -44.796875 30.296875 -44.796875 C 21.3125 -44.796875 13.78125 -40 9.796875 -31.65625 L 9.796875 -66.65625 Z M 30.375 -42.34375 C 41.53125 -42.34375 50.515625 -33.1875 50.515625 -22.03125 C 50.515625 -10.421875 41.53125 -1.359375 30.109375 -1.359375 C 18.859375 -1.359375 9.890625 -10.421875 9.890625 -21.765625 C 9.890625 -33.09375 19.140625 -42.34375 30.375 -42.34375 Z M 30.375 -42.34375 "/></g></g></g><g fill="#000000" fill-opacity="1"><g transform="translate(220.671548, 193.819439)"><g><path d="M 8.703125 -43.984375 L 8.703125 0 L 11.34375 0 L 11.34375 -43.984375 Z M 8.25 -58.40625 C 8.25 -57.3125 9.0625 -56.40625 10.25 -56.40625 C 11.34375 -56.40625 12.15625 -57.3125 12.15625 -58.40625 C 12.15625 -59.484375 11.34375 -60.390625 10.25 -60.390625 C 9.0625 -60.390625 8.25 -59.484375 8.25 -58.40625 Z M 8.25 -58.40625 "/></g></g></g><g fill="#000000" fill-opacity="1"><g transform="translate(172.010926, 248.680532)"><g><path d="M 22.84375 0.9375 C 19.507812 0.9375 16.453125 0.546875 13.671875 -0.234375 C 10.898438 -1.023438 8.53125 -2.101562 6.5625 -3.46875 C 4.601562 -4.84375 3.15625 -6.414062 2.21875 -8.1875 L 9.03125 -15.546875 L 9.96875 -15.546875 C 11.59375 -13.359375 13.507812 -11.71875 15.71875 -10.625 C 17.9375 -9.53125 20.34375 -8.984375 22.9375 -8.984375 C 25.332031 -8.984375 27.132812 -9.410156 28.34375 -10.265625 C 29.550781 -11.128906 30.15625 -12.359375 30.15625 -13.953125 C 30.15625 -15.191406 29.71875 -16.226562 28.84375 -17.0625 C 27.976562 -17.90625 26.570312 -18.566406 24.625 -19.046875 L 18.15625 -20.59375 C 13.3125 -21.738281 9.773438 -23.5 7.546875 -25.875 C 5.316406 -28.257812 4.203125 -31.28125 4.203125 -34.9375 C 4.203125 -37.976562 4.976562 -40.617188 6.53125 -42.859375 C 8.082031 -45.109375 10.265625 -46.820312 13.078125 -48 C 15.898438 -49.175781 19.1875 -49.765625 22.9375 -49.765625 C 27.332031 -49.765625 30.976562 -49.128906 33.875 -47.859375 C 36.769531 -46.597656 39.03125 -44.90625 40.65625 -42.78125 L 34.09375 -35.6875 L 33.203125 -35.6875 C 31.847656 -37.226562 30.320312 -38.351562 28.625 -39.0625 C 26.925781 -39.769531 25.03125 -40.125 22.9375 -40.125 C 18.09375 -40.125 15.671875 -38.617188 15.671875 -35.609375 C 15.671875 -34.335938 16.117188 -33.300781 17.015625 -32.5 C 17.921875 -31.707031 19.507812 -31.054688 21.78125 -30.546875 L 27.8125 -29.21875 C 32.769531 -28.15625 36.390625 -26.453125 38.671875 -24.109375 C 40.960938 -21.765625 42.109375 -18.613281 42.109375 -14.65625 C 42.109375 -11.550781 41.335938 -8.816406 39.796875 -6.453125 C 38.265625 -4.097656 36.050781 -2.273438 33.15625 -0.984375 C 30.269531 0.296875 26.832031 0.9375 22.84375 0.9375 Z M 22.84375 0.9375 "/></g></g></g><g fill="#000000" fill-opacity="1"><g transform="translate(212.052919, 248.680532)"><g><path d="M 19.046875 0.9375 C 15.910156 0.9375 13.191406 0.359375 10.890625 -0.796875 C 8.585938 -1.953125 6.816406 -3.640625 5.578125 -5.859375 C 4.335938 -8.085938 3.71875 -10.769531 3.71875 -13.90625 C 3.71875 -16.800781 4.335938 -19.226562 5.578125 -21.1875 C 6.816406 -23.15625 8.734375 -24.765625 11.328125 -26.015625 C 13.929688 -27.265625 17.328125 -28.234375 21.515625 -28.921875 C 24.441406 -29.390625 26.664062 -29.90625 28.1875 -30.46875 C 29.707031 -31.03125 30.734375 -31.664062 31.265625 -32.375 C 31.796875 -33.082031 32.0625 -33.984375 32.0625 -35.078125 C 32.0625 -36.640625 31.515625 -37.832031 30.421875 -38.65625 C 29.328125 -39.476562 27.507812 -39.890625 24.96875 -39.890625 C 22.257812 -39.890625 19.675781 -39.285156 17.21875 -38.078125 C 14.769531 -36.867188 12.644531 -35.273438 10.84375 -33.296875 L 9.96875 -33.296875 L 4.828125 -41.046875 C 7.304688 -43.796875 10.332031 -45.9375 13.90625 -47.46875 C 17.476562 -49 21.375 -49.765625 25.59375 -49.765625 C 32.0625 -49.765625 36.738281 -48.390625 39.625 -45.640625 C 42.519531 -42.898438 43.96875 -39.007812 43.96875 -33.96875 L 43.96875 -12.75 C 43.96875 -10.5625 44.925781 -9.46875 46.84375 -9.46875 C 47.582031 -9.46875 48.304688 -9.601562 49.015625 -9.875 L 49.640625 -9.703125 L 50.53125 -1.15625 C 49.84375 -0.707031 48.894531 -0.34375 47.6875 -0.0625 C 46.476562 0.21875 45.148438 0.359375 43.703125 0.359375 C 40.785156 0.359375 38.503906 -0.203125 36.859375 -1.328125 C 35.222656 -2.453125 34.050781 -4.207031 33.34375 -6.59375 L 32.40625 -6.6875 C 30.019531 -1.601562 25.566406 0.9375 19.046875 0.9375 Z M 22.9375 -8.234375 C 25.769531 -8.234375 28.035156 -9.1875 29.734375 -11.09375 C 31.429688 -13 32.28125 -15.648438 32.28125 -19.046875 L 32.28125 -24 L 31.4375 -24.171875 C 30.695312 -23.585938 29.726562 -23.09375 28.53125 -22.6875 C 27.34375 -22.289062 25.625 -21.898438 23.375 -21.515625 C 20.71875 -21.078125 18.804688 -20.316406 17.640625 -19.234375 C 16.472656 -18.160156 15.890625 -16.632812 15.890625 -14.65625 C 15.890625 -12.5625 16.507812 -10.96875 17.75 -9.875 C 18.988281 -8.78125 20.71875 -8.234375 22.9375 -8.234375 Z M 22.9375 -8.234375 "/></g></g></g><g fill="#000000" fill-opacity="1"><g transform="translate(258.559382, 248.680532)"><g><path d="M 34.140625 0.9375 C 27.910156 0.9375 23.273438 -1.394531 20.234375 -6.0625 L 19.3125 -5.890625 L 19.3125 0 L 7.046875 0 L 7.046875 -68.453125 L 19.3125 -68.453125 L 19.3125 -43.078125 L 20.234375 -42.90625 C 21.921875 -45.238281 23.90625 -46.960938 26.1875 -48.078125 C 28.476562 -49.203125 31.21875 -49.765625 34.40625 -49.765625 C 38.363281 -49.765625 41.816406 -48.832031 44.765625 -46.96875 C 47.722656 -45.113281 50.023438 -42.289062 51.671875 -38.5 C 53.328125 -34.707031 54.15625 -30.007812 54.15625 -24.40625 C 54.15625 -18.851562 53.296875 -14.175781 51.578125 -10.375 C 49.867188 -6.582031 47.507812 -3.75 44.5 -1.875 C 41.488281 0 38.035156 0.9375 34.140625 0.9375 Z M 30.421875 -9.46875 C 34.023438 -9.46875 36.769531 -10.671875 38.65625 -13.078125 C 40.539062 -15.484375 41.484375 -19.257812 41.484375 -24.40625 C 41.484375 -29.5625 40.539062 -33.34375 38.65625 -35.75 C 36.769531 -38.15625 34.023438 -39.359375 30.421875 -39.359375 C 26.960938 -39.359375 24.222656 -38.117188 22.203125 -35.640625 C 20.179688 -33.160156 19.171875 -29.414062 19.171875 -24.40625 C 19.171875 -19.382812 20.179688 -15.640625 22.203125 -13.171875 C 24.222656 -10.703125 26.960938 -9.46875 30.421875 -9.46875 Z M 30.421875 -9.46875 "/></g></g></g><g fill="#000000" fill-opacity="1"><g transform="translate(312.06164, 248.680532)"><g><path d="M 13.15625 -54.6875 C 10.9375 -54.6875 9.132812 -55.359375 7.75 -56.703125 C 6.363281 -58.046875 5.671875 -59.78125 5.671875 -61.90625 C 5.671875 -64 6.363281 -65.71875 7.75 -67.0625 C 9.132812 -68.40625 10.9375 -69.078125 13.15625 -69.078125 C 14.625 -69.078125 15.929688 -68.765625 17.078125 -68.140625 C 18.234375 -67.523438 19.128906 -66.675781 19.765625 -65.59375 C 20.398438 -64.519531 20.71875 -63.289062 20.71875 -61.90625 C 20.71875 -60.519531 20.398438 -59.28125 19.765625 -58.1875 C 19.128906 -57.09375 18.234375 -56.234375 17.078125 -55.609375 C 15.929688 -54.992188 14.625 -54.6875 13.15625 -54.6875 Z M 7.046875 0 L 7.046875 -48.84375 L 19.3125 -48.84375 L 19.3125 0 Z M 7.046875 0 "/></g></g></g><g clip-path="url(#74a3aa3b50)"><path fill="#e9bcb7" d="M 119.429688 244.609375 L 119.429688 249.625 C 119.433594 249.773438 119.40625 249.914062 119.347656 250.046875 C 119.292969 250.183594 119.214844 250.304688 119.109375 250.40625 C 119.007812 250.511719 118.886719 250.589844 118.753906 250.644531 C 118.617188 250.699219 118.476562 250.726562 118.332031 250.726562 L 56.3125 250.726562 C 56.164062 250.726562 56.023438 250.699219 55.890625 250.644531 C 55.753906 250.589844 55.632812 250.511719 55.53125 250.40625 C 55.425781 250.304688 55.347656 250.183594 55.292969 250.046875 C 55.238281 249.914062 55.210938 249.773438 55.210938 249.625 L 55.210938 244.609375 C 55.210938 243.558594 55.261719 242.511719 55.363281 241.464844 C 55.46875 240.417969 55.621094 239.378906 55.828125 238.347656 C 56.03125 237.316406 56.289062 236.296875 56.59375 235.289062 C 56.898438 234.285156 57.25 233.292969 57.652344 232.324219 C 58.058594 231.351562 58.503906 230.402344 59 229.472656 C 59.496094 228.546875 60.039062 227.644531 60.621094 226.769531 C 61.207031 225.898438 61.832031 225.054688 62.5 224.242188 C 63.164062 223.425781 63.871094 222.648438 64.613281 221.90625 C 65.359375 221.160156 66.136719 220.457031 66.949219 219.789062 C 67.761719 219.121094 68.605469 218.496094 69.480469 217.910156 C 70.355469 217.328125 71.257812 216.789062 72.183594 216.292969 C 73.109375 215.796875 74.0625 215.347656 75.03125 214.945312 C 76.003906 214.542969 76.992188 214.1875 78 213.882812 C 79.003906 213.578125 80.023438 213.324219 81.054688 213.117188 C 82.085938 212.914062 83.125 212.757812 84.171875 212.65625 C 85.21875 212.550781 86.269531 212.5 87.320312 212.5 C 88.371094 212.5 89.421875 212.550781 90.46875 212.65625 C 91.515625 212.757812 92.554688 212.914062 93.585938 213.117188 C 94.617188 213.324219 95.636719 213.578125 96.640625 213.882812 C 97.648438 214.1875 98.636719 214.542969 99.609375 214.945312 C 100.582031 215.347656 101.53125 215.796875 102.457031 216.292969 C 103.386719 216.789062 104.285156 217.328125 105.160156 217.910156 C 106.035156 218.496094 106.878906 219.121094 107.691406 219.789062 C 108.503906 220.457031 109.28125 221.160156 110.027344 221.90625 C 110.769531 222.648438 111.476562 223.425781 112.144531 224.242188 C 112.808594 225.054688 113.4375 225.898438 114.019531 226.769531 C 114.605469 227.644531 115.144531 228.546875 115.640625 229.472656 C 116.136719 230.402344 116.585938 231.351562 116.988281 232.324219 C 117.390625 233.292969 117.742188 234.285156 118.050781 235.289062 C 118.355469 236.296875 118.609375 237.316406 118.816406 238.347656 C 119.019531 239.378906 119.171875 240.417969 119.277344 241.464844 C 119.378906 242.511719 119.429688 243.558594 119.429688 244.609375 Z M 119.429688 244.609375 " fill-opacity="1" fill-rule="nonzero"/></g></svg>