<svg xmlns="http://www.w3.org/2000/svg" xmlns:xlink="http://www.w3.org/1999/xlink" width="500" zoomAndPan="magnify" viewBox="0 0 375 374.999991" height="500" preserveAspectRatio="xMidYMid meet" version="1.0"><defs><clipPath id="10537d87db"><path d="M 113.53125 129.320312 L 310 129.320312 L 310 245.570312 L 113.53125 245.570312 Z M 113.53125 129.320312 " clip-rule="nonzero"/></clipPath><clipPath id="5b44c02f22"><path d="M 65.078125 158.789062 L 212 158.789062 L 212 245.789062 L 65.078125 245.789062 Z M 65.078125 158.789062 " clip-rule="nonzero"/></clipPath></defs><g clip-path="url(#10537d87db)"><path fill="#94a187" d="M 309.851562 226.980469 L 309.851562 242.308594 C 309.855469 242.757812 309.769531 243.1875 309.601562 243.597656 C 309.429688 244.011719 309.1875 244.375 308.871094 244.691406 C 308.554688 245.007812 308.191406 245.25 307.777344 245.421875 C 307.363281 245.589844 306.933594 245.675781 306.488281 245.675781 L 116.957031 245.675781 C 116.507812 245.675781 116.078125 245.589844 115.664062 245.421875 C 115.253906 245.25 114.886719 245.007812 114.570312 244.691406 C 114.257812 244.375 114.011719 244.011719 113.84375 243.597656 C 113.671875 243.1875 113.589844 242.757812 113.589844 242.308594 L 113.589844 226.980469 C 113.589844 225.375 113.628906 223.769531 113.707031 222.167969 C 113.789062 220.5625 113.90625 218.960938 114.0625 217.363281 C 114.21875 215.765625 114.417969 214.171875 114.652344 212.582031 C 114.886719 210.996094 115.164062 209.414062 115.476562 207.835938 C 115.789062 206.261719 116.140625 204.695312 116.53125 203.136719 C 116.921875 201.582031 117.351562 200.03125 117.816406 198.496094 C 118.28125 196.960938 118.785156 195.433594 119.328125 193.921875 C 119.867188 192.410156 120.445312 190.914062 121.058594 189.429688 C 121.675781 187.945312 122.324219 186.476562 123.011719 185.027344 C 123.699219 183.574219 124.421875 182.140625 125.179688 180.722656 C 125.933594 179.308594 126.726562 177.910156 127.550781 176.53125 C 128.378906 175.15625 129.238281 173.800781 130.128906 172.464844 C 131.019531 171.128906 131.945312 169.816406 132.902344 168.527344 C 133.859375 167.234375 134.847656 165.96875 135.867188 164.730469 C 136.882812 163.488281 137.933594 162.269531 139.011719 161.082031 C 140.089844 159.890625 141.195312 158.730469 142.332031 157.59375 C 143.46875 156.457031 144.632812 155.351562 145.820312 154.273438 C 147.011719 153.195312 148.226562 152.144531 149.46875 151.125 C 150.710938 150.105469 151.976562 149.121094 153.265625 148.164062 C 154.554688 147.207031 155.867188 146.28125 157.203125 145.390625 C 158.539062 144.496094 159.894531 143.636719 161.273438 142.8125 C 162.648438 141.988281 164.046875 141.195312 165.464844 140.4375 C 166.878906 139.679688 168.3125 138.960938 169.765625 138.273438 C 171.21875 137.585938 172.683594 136.9375 174.167969 136.320312 C 175.652344 135.707031 177.148438 135.128906 178.664062 134.585938 C 180.175781 134.046875 181.699219 133.542969 183.234375 133.078125 C 184.773438 132.609375 186.320312 132.183594 187.878906 131.792969 C 189.4375 131.402344 191.003906 131.050781 192.578125 130.738281 C 194.152344 130.421875 195.734375 130.148438 197.324219 129.914062 C 198.910156 129.675781 200.503906 129.480469 202.101562 129.324219 C 203.703125 129.167969 205.304688 129.046875 206.90625 128.96875 C 208.511719 128.890625 210.117188 128.851562 211.722656 128.851562 C 213.328125 128.851562 214.933594 128.890625 216.535156 128.96875 C 218.140625 129.046875 219.742188 129.167969 221.339844 129.324219 C 222.9375 129.480469 224.53125 129.675781 226.121094 129.914062 C 227.710938 130.148438 229.292969 130.421875 230.867188 130.738281 C 232.441406 131.050781 234.007812 131.402344 235.566406 131.792969 C 237.125 132.183594 238.671875 132.609375 240.207031 133.078125 C 241.746094 133.542969 243.269531 134.046875 244.78125 134.585938 C 246.292969 135.128906 247.792969 135.707031 249.273438 136.320312 C 250.757812 136.9375 252.226562 137.585938 253.679688 138.273438 C 255.128906 138.960938 256.5625 139.679688 257.980469 140.4375 C 259.398438 141.195312 260.792969 141.988281 262.171875 142.8125 C 263.550781 143.636719 264.90625 144.496094 266.242188 145.390625 C 267.574219 146.28125 268.886719 147.207031 270.179688 148.164062 C 271.46875 149.121094 272.734375 150.105469 273.976562 151.125 C 275.21875 152.144531 276.433594 153.195312 277.621094 154.273438 C 278.8125 155.351562 279.976562 156.457031 281.109375 157.59375 C 282.246094 158.730469 283.355469 159.890625 284.433594 161.082031 C 285.511719 162.269531 286.558594 163.488281 287.578125 164.730469 C 288.597656 165.96875 289.585938 167.234375 290.542969 168.527344 C 291.5 169.816406 292.421875 171.128906 293.316406 172.464844 C 294.207031 173.800781 295.066406 175.15625 295.890625 176.53125 C 296.71875 177.910156 297.507812 179.308594 298.265625 180.722656 C 299.023438 182.140625 299.746094 183.574219 300.429688 185.027344 C 301.117188 186.476562 301.769531 187.945312 302.382812 189.429688 C 302.996094 190.914062 303.574219 192.410156 304.117188 193.921875 C 304.65625 195.433594 305.160156 196.960938 305.628906 198.496094 C 306.09375 200.03125 306.523438 201.582031 306.910156 203.136719 C 307.300781 204.695312 307.652344 206.261719 307.96875 207.835938 C 308.28125 209.414062 308.554688 210.996094 308.789062 212.582031 C 309.027344 214.171875 309.222656 215.765625 309.378906 217.363281 C 309.539062 218.960938 309.65625 220.5625 309.734375 222.167969 C 309.8125 223.769531 309.851562 225.375 309.851562 226.980469 Z M 309.851562 226.980469 " fill-opacity="1" fill-rule="nonzero"/></g><g clip-path="url(#5b44c02f22)"><path fill="#e9bcb7" d="M 211.675781 231.714844 L 211.675781 243.160156 C 211.675781 243.496094 211.613281 243.816406 211.488281 244.125 C 211.359375 244.433594 211.179688 244.703125 210.941406 244.941406 C 210.707031 245.175781 210.433594 245.359375 210.125 245.484375 C 209.816406 245.613281 209.496094 245.675781 209.164062 245.671875 L 67.636719 245.671875 C 67.304688 245.675781 66.984375 245.613281 66.675781 245.484375 C 66.367188 245.359375 66.09375 245.175781 65.859375 244.941406 C 65.621094 244.703125 65.441406 244.433594 65.3125 244.125 C 65.1875 243.816406 65.125 243.496094 65.125 243.160156 L 65.125 231.714844 C 65.125 230.515625 65.15625 229.320312 65.214844 228.121094 C 65.273438 226.921875 65.359375 225.726562 65.480469 224.535156 C 65.597656 223.339844 65.742188 222.152344 65.917969 220.964844 C 66.09375 219.777344 66.300781 218.597656 66.535156 217.421875 C 66.769531 216.246094 67.03125 215.074219 67.320312 213.914062 C 67.613281 212.75 67.933594 211.59375 68.28125 210.445312 C 68.628906 209.296875 69.003906 208.160156 69.410156 207.03125 C 69.8125 205.902344 70.246094 204.785156 70.703125 203.675781 C 71.164062 202.566406 71.648438 201.472656 72.160156 200.386719 C 72.671875 199.304688 73.210938 198.234375 73.777344 197.175781 C 74.34375 196.117188 74.933594 195.074219 75.550781 194.046875 C 76.167969 193.015625 76.808594 192.003906 77.476562 191.007812 C 78.140625 190.011719 78.832031 189.03125 79.546875 188.066406 C 80.261719 187.105469 80.996094 186.160156 81.757812 185.230469 C 82.519531 184.304688 83.300781 183.398438 84.109375 182.507812 C 84.914062 181.621094 85.738281 180.75 86.585938 179.902344 C 87.433594 179.054688 88.304688 178.230469 89.191406 177.421875 C 90.082031 176.617188 90.988281 175.835938 91.914062 175.074219 C 92.84375 174.3125 93.789062 173.578125 94.75 172.863281 C 95.714844 172.148438 96.695312 171.457031 97.691406 170.789062 C 98.6875 170.125 99.699219 169.484375 100.730469 168.867188 C 101.757812 168.25 102.800781 167.660156 103.859375 167.09375 C 104.917969 166.527344 105.988281 165.988281 107.070312 165.476562 C 108.15625 164.964844 109.25 164.480469 110.359375 164.019531 C 111.46875 163.5625 112.585938 163.128906 113.714844 162.726562 C 114.84375 162.320312 115.980469 161.945312 117.128906 161.597656 C 118.277344 161.25 119.433594 160.929688 120.597656 160.636719 C 121.757812 160.347656 122.929688 160.082031 124.105469 159.851562 C 125.28125 159.617188 126.460938 159.410156 127.648438 159.234375 C 128.835938 159.058594 130.023438 158.914062 131.21875 158.792969 C 132.410156 158.675781 133.605469 158.589844 134.804688 158.53125 C 136.003906 158.472656 137.203125 158.441406 138.402344 158.441406 C 139.597656 158.441406 140.796875 158.472656 141.996094 158.53125 C 143.195312 158.589844 144.390625 158.675781 145.582031 158.792969 C 146.777344 158.914062 147.964844 159.058594 149.152344 159.234375 C 150.339844 159.410156 151.519531 159.617188 152.695312 159.851562 C 153.871094 160.082031 155.042969 160.347656 156.203125 160.636719 C 157.367188 160.929688 158.523438 161.25 159.671875 161.597656 C 160.820312 161.945312 161.957031 162.320312 163.085938 162.726562 C 164.214844 163.128906 165.332031 163.5625 166.441406 164.019531 C 167.550781 164.480469 168.644531 164.964844 169.730469 165.476562 C 170.8125 165.988281 171.882812 166.527344 172.941406 167.09375 C 174 167.660156 175.042969 168.25 176.070312 168.867188 C 177.101562 169.484375 178.113281 170.125 179.109375 170.789062 C 180.105469 171.457031 181.085938 172.148438 182.050781 172.863281 C 183.011719 173.578125 183.957031 174.3125 184.886719 175.074219 C 185.8125 175.835938 186.71875 176.617188 187.609375 177.421875 C 188.496094 178.230469 189.367188 179.054688 190.214844 179.902344 C 191.0625 180.75 191.886719 181.621094 192.691406 182.507812 C 193.5 183.398438 194.28125 184.304688 195.042969 185.230469 C 195.804688 186.160156 196.539062 187.105469 197.253906 188.066406 C 197.96875 189.03125 198.660156 190.011719 199.324219 191.007812 C 199.992188 192.003906 200.632812 193.015625 201.25 194.046875 C 201.867188 195.074219 202.457031 196.117188 203.023438 197.175781 C 203.589844 198.234375 204.128906 199.304688 204.640625 200.386719 C 205.152344 201.472656 205.636719 202.566406 206.097656 203.675781 C 206.554688 204.785156 206.988281 205.902344 207.390625 207.03125 C 207.796875 208.160156 208.171875 209.296875 208.519531 210.445312 C 208.867188 211.59375 209.1875 212.75 209.480469 213.914062 C 209.769531 215.074219 210.03125 216.246094 210.265625 217.421875 C 210.5 218.597656 210.707031 219.777344 210.882812 220.964844 C 211.058594 222.152344 211.203125 223.339844 211.320312 224.535156 C 211.441406 225.726562 211.527344 226.921875 211.585938 228.121094 C 211.644531 229.320312 211.675781 230.515625 211.675781 231.714844 Z M 211.675781 231.714844 " fill-opacity="1" fill-rule="nonzero"/></g></svg>